<svg xmlns="http://www.w3.org/2000/svg" width="583" height="198" viewBox="0 0 600 203">
  <defs>
    <style>
      .cls-1 {
        fill: none;
        stroke: #6d7278;
        stroke-linecap: square;
        stroke-miterlimit: 10;
      }

      .cls-2 {
        fill: #f33437;
      }

      .cls-3 {
        fill: #67c7ec;
      }

      .cls-4 {
        fill: #eedd23;
      }

      .cls-5 {
        fill: #066d9f;
      }
    </style>
  </defs>
  <g data-name="Group 2" transform="translate(-685 -3443)">
    <g  data-name="Group 19" transform="translate(693 3609)">
      <path data-name="Line 10" class="cls-1" d="M.5-.5l482-108" transform="translate(98 -8)"/>
      <path  data-name="Line 11" class="cls-1" d="M288.5-.5.5-114.5" transform="translate(194)"/>
      <path data-name="Line 12" class="cls-1" d="M.5-118.5l295,118"/>
      <path data-name="Line 13" class="cls-1" d="M89.5-125.5.5-.5" transform="translate(295 -1)"/>
    </g>
    <circle  class="cls-2" cx="39.5" cy="39.5" r="39.5" transform="translate(754 3567)"/>
    <circle data-name="Oval Copy" cx="39.5" cy="39.5" r="39.5" transform="translate(685 3443)"/>
    <circle data-name="Oval Copy 2" class="cls-3" cx="39.5" cy="39.5" r="39.5" transform="translate(858 3443)"/>
    <circle data-name="Oval Copy 3" class="cls-4" cx="39.5" cy="39.5" r="39.5" transform="translate(945 3567)"/>
    <circle  data-name="Oval Copy 4" class="cls-2" cx="39.5" cy="39.5" r="39.5" transform="translate(1033 3443)"/>
    <circle data-name="Oval Copy 5" class="cls-5" cx="39.5" cy="39.5" r="39.5" transform="translate(1136 3567)"/>
    <circle data-name="Oval Copy 6" class="cls-4" cx="39.5" cy="39.5" r="39.5" transform="translate(1206 3443)"/>
  </g>
</svg>
