<svg data-name="Layer 2" xmlns="http://www.w3.org/2000/svg" xmlns:xlink="http://www.w3.org/1999/xlink" viewBox="0 0 129 130" width="129" height="129">
  <defs>
    <style>
      .cls-1, .cls-4 {
        fill: none;
      }

      .cls-2 {
        fill: #066d9f;
      }

      .cls-3 {
        clip-path: url(#clip-path);
      }

      .cls-4 {
        stroke: #f33437;
        stroke-linecap: square;
        stroke-miterlimit: 10;
        stroke-width: 4px;
      }
    </style>
    <clipPath id="clip-path">
      <path class="cls-1" d="M64.5,0h0A64.5,64.5,0,0,1,129,64.5h0A64.5,64.5,0,0,1,64.5,129h0A64.5,64.5,0,0,1,0,64.5H0A64.5,64.5,0,0,1,64.5,0Z"/>
    </clipPath>
  </defs>
  <title>sect2-circle-2</title>
  <path  class="cls-2" d="M64.5,0h0A64.5,64.5,0,0,1,129,64.5h0A64.5,64.5,0,0,1,64.5,129h0A64.5,64.5,0,0,1,0,64.5H0A64.5,64.5,0,0,1,64.5,0Z"/>
  <g class="cls-3">
    <g id="Group_10_Copy-2" data-name="Group 10 Copy-2">
      <g id="Group_10_Copy-3" data-name="Group 10 Copy-3">
        <path data-name="Line 9-12" class="cls-4" d="M124,35v93"/>
        <path data-name="Line 9-13" class="cls-4" d="M114,35v93"/>
        <path data-name="Line 9-14" class="cls-4" d="M104,35v93"/>
        <path data-name="Line 9-15" class="cls-4" d="M94,35v93"/>
        <path data-name="Line 9-16" class="cls-4" d="M84,35v93"/>
        <path data-name="Line 9-17" class="cls-4" d="M74,35v93"/>
        <path data-name="Line 9-18" class="cls-4" d="M64,35v93"/>
        <path data-name="Line 9-19" class="cls-4" d="M54,35v93"/>
        <path  data-name="Line 9-20" class="cls-4" d="M44,35v93"/>
        <path  data-name="Line 9-21" class="cls-4" d="M34,35v93"/>
        <path  data-name="Line 9-22" class="cls-4" d="M24,35v93"/>
        <path  data-name="Line 9-23" class="cls-4" d="M14,35v93"/>
        <path  data-name="Line 9-24" class="cls-4" d="M4,35v93"/>
      </g>
    </g>
  </g>
</svg>
