<svg id="Layer_2" data-name="Layer 2" xmlns="http://www.w3.org/2000/svg" xmlns:xlink="http://www.w3.org/1999/xlink" x="0px" y="0px" width="129" height="129"
	 viewBox="0 0 129 129">
  <defs>
    <style>
      .cls-1, .cls-4 {
        fill: none;
      }

      .cls-2 {
        fill: #f33437;
      }

      .cls-3 {
        clip-path: url(#clip-path);
      }

      .cls-4 {
        stroke: #eedd23;
        stroke-linecap: square;
        stroke-miterlimit: 10;
        stroke-width: 4px;
      }
    </style>
    <clipPath id="clip-path">
      <path class="cls-1" d="M64.5,0h0A64.53,64.53,0,0,1,129,64.5h0A64.53,64.53,0,0,1,64.5,129h0A64.53,64.53,0,0,1,0,64.5H0A64.53,64.53,0,0,1,64.5,0Z"/>
    </clipPath>
  </defs>
  <title>sect2-circle-4</title>
  <path id="Mask-2" class="cls-2" d="M64.5,0h0A64.53,64.53,0,0,1,129,64.5h0A64.53,64.53,0,0,1,64.5,129h0A64.53,64.53,0,0,1,0,64.5H0A64.53,64.53,0,0,1,64.5,0Z"/>
  <g class="cls-3">
    <g id="Group_10_Copy-2" data-name="Group 10 Copy-2">
      <g id="Group_10_Copy-3" data-name="Group 10 Copy-3">
        <path id="Line_9-14" data-name="Line 9-14" class="cls-4" d="M125,20V128"/>
        <path id="Line_9-15" data-name="Line 9-15" class="cls-4" d="M115,20V128"/>
        <path id="Line_9-16" data-name="Line 9-16" class="cls-4" d="M105,20V128"/>
        <path id="Line_9-17" data-name="Line 9-17" class="cls-4" d="M95,20V128"/>
        <path id="Line_9-18" data-name="Line 9-18" class="cls-4" d="M85,20V128"/>
        <path id="Line_9-19" data-name="Line 9-19" class="cls-4" d="M75,20V128"/>
        <path id="Line_9-20" data-name="Line 9-20" class="cls-4" d="M65,20V128"/>
        <path id="Line_9-21" data-name="Line 9-21" class="cls-4" d="M55,20V128"/>
        <path id="Line_9-22" data-name="Line 9-22" class="cls-4" d="M45,20V128"/>
        <path id="Line_9-23" data-name="Line 9-23" class="cls-4" d="M35,20V128"/>
        <path id="Line_9-24" data-name="Line 9-24" class="cls-4" d="M25,20V128"/>
        <path id="Line_9-25" data-name="Line 9-25" class="cls-4" d="M15,20V128"/>
        <path id="Line_9-26" data-name="Line 9-26" class="cls-4" d="M5,20V128"/>
      </g>
    </g>
  </g>
</svg>
