<svg id="Layer_3" data-name="Layer 3" xmlns="http://www.w3.org/2000/svg" xmlns:xlink="http://www.w3.org/1999/xlink" x="0px" y="0px" width="129" height="129"
	 viewBox="0 0 129 129">
  <defs>
    <style>
      .cls-1, .cls-3 {
        fill: none;
      }

      .cls-2 {
        clip-path: url(#clip-path);
      }

      .cls-3 {
        stroke: #48bae6;
        stroke-linecap: square;
        stroke-miterlimit: 10;
        stroke-width: 4px;
      }
    </style>
    <clipPath id="clip-path">
      <path class="cls-1" d="M64.5,0h0A64.5,64.5,0,0,1,129,64.5h0A64.5,64.5,0,0,1,64.5,129h0A64.5,64.5,0,0,1,0,64.5H0A64.5,64.5,0,0,1,64.5,0Z"/>
    </clipPath>
  </defs>
  <title>sect2-circle-3a</title>
  <path id="Mask-2" d="M64.5,0h0A64.5,64.5,0,0,1,129,64.5h0A64.5,64.5,0,0,1,64.5,129h0A64.5,64.5,0,0,1,0,64.5H0A64.5,64.5,0,0,1,64.5,0Z"/>
  <g class="cls-2">
    <g id="Group_10_Copy-2" data-name="Group 10 Copy-2">
      <g id="Group_10_Copy-3" data-name="Group 10 Copy-3">
        <path id="Line_9-11" data-name="Line 9-11" class="cls-3" d="M128,108v20"/>
        <path id="Line_9-12" data-name="Line 9-12" class="cls-3" d="M118,108v20"/>
        <path id="Line_9-13" data-name="Line 9-13" class="cls-3" d="M108,108v20"/>
        <path id="Line_9-14" data-name="Line 9-14" class="cls-3" d="M98,108v20"/>
        <path id="Line_9-15" data-name="Line 9-15" class="cls-3" d="M88,108v20"/>
        <path id="Line_9-16" data-name="Line 9-16" class="cls-3" d="M78,108v20"/>
        <path id="Line_9-17" data-name="Line 9-17" class="cls-3" d="M68,108v20"/>
        <path id="Line_9-18" data-name="Line 9-18" class="cls-3" d="M58,108v20"/>
        <path id="Line_9-19" data-name="Line 9-19" class="cls-3" d="M48,108v20"/>
        <path id="Line_9-20" data-name="Line 9-20" class="cls-3" d="M38,108v20"/>
        <path id="Line_9-21" data-name="Line 9-21" class="cls-3" d="M28,108v20"/>
        <path id="Line_9-22" data-name="Line 9-22" class="cls-3" d="M18,108v20"/>
        <path id="Line_9-23" data-name="Line 9-23" class="cls-3" d="M8,108v20"/>
      </g>
    </g>
  </g>
</svg>
